<?xml version="1.0" standalone="no"?>
<!DOCTYPE svg PUBLIC "-//W3C//DTD SVG 20010904//EN"
 "http://www.w3.org/TR/2001/REC-SVG-20010904/DTD/svg10.dtd">
<svg version="1.0" xmlns="http://www.w3.org/2000/svg"
 width="672.000000pt" height="672.000000pt" viewBox="0 0 672.000000 672.000000"
 preserveAspectRatio="xMidYMid meet">
<metadata>
Created by potrace 1.14, written by Peter Selinger 2001-2017
</metadata>
<g transform="translate(0.000000,672.000000) scale(0.100000,-0.100000)"
fill="#000000" stroke="none">
<path d="M3153 6548 c-20 -27 -26 -51 -38 -156 -8 -76 -17 -89 -57 -84 -28 3
-36 -1 -48 -23 -8 -15 -15 -33 -16 -39 0 -6 -2 -16 -2 -22 -1 -6 -20 -16 -42
-23 l-40 -12 -1 -57 c-1 -31 -2 -66 -3 -77 0 -11 7 -39 16 -63 l18 -43 -25 -9
c-14 -5 -26 -15 -27 -22 0 -7 -2 -17 -3 -23 -2 -5 -3 -25 -4 -42 -1 -42 -14
-42 -41 1 -24 40 -50 52 -79 37 -13 -8 -18 -18 -15 -34 13 -69 15 -91 6 -79
-5 8 -20 12 -33 10 -22 -3 -24 -7 -21 -55 1 -28 -2 -54 -8 -58 -6 -3 -36 7
-67 24 -31 17 -61 31 -67 31 -21 0 -37 17 -42 45 -8 44 -23 57 -61 53 -40 -5
-43 2 -57 126 -8 64 -22 95 -46 98 -63 6 -82 -17 -65 -82 12 -46 12 -47 -22
-83 -24 -27 -41 -37 -63 -37 -17 0 -30 -3 -30 -7 0 -5 13 -28 29 -52 17 -25
27 -49 24 -54 -3 -5 -8 -5 -12 -1 -8 12 -48 34 -60 34 -21 0 -18 -31 4 -58 22
-26 23 -31 10 -48 -8 -10 -15 -27 -15 -36 0 -11 -8 -18 -19 -18 -10 0 -24 -7
-31 -15 -9 -11 -8 -20 9 -43 11 -16 19 -37 19 -48 -1 -10 2 -32 6 -47 5 -22 4
-28 -6 -25 -7 3 -13 9 -13 14 -1 5 -4 22 -8 37 -6 22 -12 27 -27 22 -15 -5
-23 0 -31 19 -24 53 -69 35 -69 -27 0 -30 32 -68 95 -114 27 -19 28 -22 11
-29 -10 -4 -27 -2 -37 4 -59 37 -95 -8 -64 -80 5 -13 1 -20 -18 -27 -25 -10
-30 -33 -13 -59 3 -5 -14 -18 -38 -29 l-42 -21 -40 24 c-46 28 -66 30 -101 7
-25 -17 -26 -17 -15 2 6 11 27 38 47 60 60 68 60 100 -2 71 -60 -29 -66 17
-11 96 25 37 23 52 -7 44 -39 -10 -46 18 -39 137 4 69 3 110 -4 123 -11 18
-11 18 -12 -1 -2 -27 -5 -41 -22 -100 -17 -55 -16 -115 0 -156 13 -32 8 -39
-26 -39 -25 0 -25 0 -6 -21 16 -18 19 -37 19 -125 0 -142 -20 -159 -60 -52
-18 49 -40 76 -52 64 -4 -4 -2 -20 4 -36 13 -34 8 -37 -18 -14 -19 18 -39 11
-39 -12 0 -9 22 -37 49 -63 38 -37 48 -54 44 -70 -8 -31 -37 -43 -117 -47 -39
-3 -79 -6 -88 -8 -12 -3 -18 2 -18 15 0 15 -7 19 -34 19 -28 0 -36 5 -49 33
-8 17 -19 50 -23 72 -4 22 -16 60 -27 85 l-19 45 -14 -32 c-15 -35 -32 -41
-65 -20 -17 10 -22 9 -31 -8 -7 -11 -13 -36 -15 -55 -2 -19 -6 -36 -7 -38 -2
-2 -20 4 -40 12 -38 16 -45 13 -41 -19 16 -117 16 -141 2 -160 -21 -27 -39 -9
-66 66 -13 33 -29 63 -38 66 -24 9 -46 -22 -45 -64 1 -48 1 -47 41 -170 45
-139 33 -188 -31 -126 -15 15 -34 28 -41 29 -6 1 -19 3 -27 5 -11 3 -14 -3
-13 -21 2 -14 5 -47 7 -73 4 -55 8 -61 73 -96 77 -42 86 -115 14 -116 -17 0
-36 -7 -41 -15 -8 -12 -15 -11 -50 8 -23 12 -46 22 -51 22 -6 0 -9 -18 -7 -40
1 -22 -1 -42 -5 -46 -3 -4 -23 6 -43 21 -47 36 -103 50 -111 27 -4 -10 4 -23
22 -38 28 -22 28 -24 15 -63 -11 -36 -11 -42 9 -74 12 -19 64 -75 116 -125 52
-49 95 -94 95 -100 0 -30 -26 -21 -66 22 -24 26 -47 45 -52 42 -4 -2 -28 11
-52 30 -32 26 -46 31 -52 22 -10 -17 -10 -65 1 -72 5 -3 20 -31 35 -61 14 -31
37 -66 49 -78 32 -31 38 -51 21 -76 -23 -32 -47 -25 -164 47 -70 44 -79 45
-86 16 -10 -38 14 -72 87 -125 85 -63 102 -98 78 -167 -9 -27 -14 -30 -47 -29
-38 2 -49 -14 -29 -40 5 -7 6 -17 2 -23 -12 -20 -41 -10 -84 29 -24 22 -52 39
-62 38 -30 -2 -23 -43 11 -74 31 -28 39 -45 18 -40 -20 3 -11 -39 18 -82 26
-39 25 -61 -1 -61 -21 0 -25 -26 -8 -50 14 -20 14 -25 -3 -55 -14 -27 -15 -36
-5 -48 11 -14 15 -25 26 -91 8 -43 30 -79 68 -112 19 -16 51 -63 71 -104 21
-41 49 -87 64 -102 24 -26 23 -34 -3 -28 -5 1 -27 4 -49 7 -43 5 -76 24 -121
69 -35 35 -75 54 -115 54 -21 0 -35 8 -46 26 -12 17 -20 22 -27 15 -7 -7 -5
-16 6 -28 11 -13 47 -141 47 -170 0 -2 9 -3 20 -3 10 0 35 -14 54 -31 19 -16
61 -39 93 -50 81 -28 122 -51 129 -71 7 -23 11 -22 59 2 49 25 83 26 81 3 -1
-13 7 -18 31 -18 46 0 59 -17 37 -49 -27 -42 -62 -55 -125 -48 -68 8 -152 7
-205 -2 -37 -7 -42 -5 -58 19 -18 27 -46 41 -99 50 -56 10 -65 15 -118 66 -55
53 -59 55 -76 38 -12 -12 -4 -49 18 -90 7 -13 13 -52 14 -87 1 -35 6 -67 12
-70 6 -4 31 -39 56 -79 26 -41 65 -86 91 -105 44 -33 80 -84 69 -101 -11 -18
-102 24 -159 72 -31 26 -111 59 -124 51 -12 -7 -10 -14 11 -37 14 -15 38 -53
52 -84 27 -56 78 -97 129 -103 42 -5 74 -24 127 -75 53 -51 59 -68 11 -31 -14
11 -29 20 -34 20 -5 0 -17 7 -26 15 -10 9 -46 16 -97 19 -96 5 -110 11 -137
61 -12 21 -24 37 -26 36 -3 -2 -18 2 -33 8 -41 16 -70 -1 -57 -33 5 -13 7 -26
5 -28 -9 -9 53 -114 74 -124 39 -20 76 -68 73 -95 -2 -15 59 -69 77 -69 16 0
20 -6 20 -32 0 -59 6 -73 37 -78 31 -6 37 -25 23 -67 -10 -27 8 -43 54 -48 19
-1 45 -10 58 -18 13 -9 40 -18 59 -22 19 -4 48 -17 64 -29 23 -19 26 -27 18
-43 -6 -11 -7 -25 -2 -33 5 -8 6 -18 4 -22 -5 -8 -126 -2 -194 9 -19 3 -44 5
-55 5 -30 -2 -91 16 -151 44 -29 13 -65 29 -79 34 -26 10 -26 9 -20 -26 7 -47
10 -52 49 -68 18 -7 50 -34 70 -59 21 -25 53 -55 73 -67 34 -20 36 -20 61 -3
53 38 64 42 84 30 25 -16 18 -30 -21 -41 -21 -6 -30 -14 -27 -23 3 -8 0 -15
-7 -17 -6 -2 -31 -9 -54 -15 l-42 -11 50 -50 c46 -46 62 -80 39 -80 -27 0 -4
-17 38 -28 67 -17 66 -17 77 -24 6 -3 39 -5 75 -3 51 3 67 0 77 -13 10 -14 14
-14 21 -4 5 8 12 12 16 10 3 -1 21 9 39 23 45 35 71 45 62 22 -8 -21 -8 -22
-6 -45 1 -15 7 -14 56 7 30 14 55 23 55 21 0 -3 15 0 33 5 17 5 47 12 66 15
18 3 41 7 51 9 37 7 38 -2 40 -268 1 -156 1 -157 -63 -158 -29 0 -61 -2 -72
-5 -11 -2 -33 -6 -50 -8 -61 -8 -161 -38 -274 -83 -173 -68 -201 -74 -356 -77
-129 -3 -145 -5 -202 -31 -35 -15 -67 -33 -73 -39 -7 -10 764 -12 3336 -12
1839 0 3341 3 3337 7 -9 8 -79 35 -133 50 -19 6 -48 14 -65 19 -72 21 -152 42
-170 46 -206 37 -236 41 -360 37 -252 -8 -271 -8 -400 12 -16 2 -54 6 -83 9
-30 2 -56 7 -59 10 -7 6 -12 316 -5 334 2 6 12 12 22 12 10 0 22 9 25 20 9 28
19 25 32 -9 20 -55 73 -15 73 55 0 13 4 24 8 24 4 0 6 -16 4 -35 -6 -54 23
-59 63 -10 33 39 49 36 44 -8 -2 -12 3 -32 9 -45 12 -21 14 -21 42 -7 39 20
109 8 95 -16 -4 -5 5 -20 19 -34 25 -25 56 -33 56 -15 0 6 11 16 25 22 20 9
28 8 42 -4 10 -9 28 -19 41 -23 30 -9 40 19 19 55 -16 27 -16 27 8 22 19 -3
25 0 25 14 1 48 17 48 67 1 59 -55 96 -72 113 -52 11 14 4 62 -7 51 -4 -3 -12
-1 -20 6 -7 6 -16 8 -20 5 -9 -9 -44 13 -38 24 10 15 37 10 90 -16 67 -35 89
-37 115 -13 29 28 22 49 -28 76 -41 23 -41 24 -28 50 19 36 4 56 -53 73 -26 8
-64 32 -95 61 -28 26 -49 48 -46 48 3 0 32 -14 63 -30 32 -17 70 -30 85 -30
27 0 50 -19 71 -58 9 -18 129 -82 153 -82 14 0 3 71 -14 81 -21 13 -3 20 25
10 19 -8 27 -7 31 4 3 9 18 14 40 13 36 -1 66 15 66 37 0 7 -9 24 -20 38 l-20
25 23 6 c12 3 34 6 48 6 15 0 33 7 40 16 11 14 10 18 -6 27 -11 6 -29 13 -39
14 -11 2 -39 10 -64 18 -39 14 -131 13 -153 -1 -9 -5 -170 42 -232 68 -49 21
-50 22 -24 31 37 12 34 25 -10 43 -91 36 -88 33 -67 48 14 11 16 17 7 28 -10
11 -8 14 5 16 60 9 65 7 85 -28 23 -42 34 -50 68 -50 34 0 51 18 38 42 -15 28
5 22 41 -12 42 -39 66 -36 62 7 l-3 32 40 -20 c71 -34 113 -18 71 26 -22 23
-22 25 -4 30 10 4 26 11 34 16 8 5 34 18 58 29 23 11 42 23 42 28 0 20 -65 36
-134 33 -39 -2 -80 -3 -91 -4 -30 0 -188 13 -205 18 -8 2 -33 6 -54 10 -55 8
-88 15 -111 25 -11 4 -28 11 -37 14 -28 9 -21 25 10 21 15 -2 54 -13 87 -24
33 -11 66 -21 73 -21 17 0 15 25 -3 40 -22 18 -9 29 30 26 23 -3 38 1 43 10 7
12 12 12 34 -5 22 -18 27 -18 45 -6 11 8 23 11 27 8 4 -4 13 -8 21 -9 24 -4
26 27 4 62 -11 19 -17 34 -12 35 4 1 20 2 34 3 29 3 49 13 49 26 0 13 -50 23
-125 25 -82 2 -146 11 -195 26 -19 6 -48 13 -65 16 -16 3 -44 18 -63 34 -28
24 -61 35 -94 30 -4 0 -15 11 -25 27 -23 38 -50 59 -110 87 -52 24 -68 50 -38
61 8 3 36 -7 62 -23 43 -25 52 -28 86 -19 37 9 40 8 73 -28 37 -41 67 -44 72
-9 5 34 26 34 67 -3 22 -19 49 -34 63 -34 21 0 24 3 19 28 -3 15 -9 35 -12 44
-7 16 -4 17 39 4 64 -19 82 -12 90 34 3 22 15 45 25 52 11 8 21 22 23 33 2 14
-5 20 -31 26 -19 4 -39 6 -45 4 -68 -23 -341 -22 -418 1 -25 7 -22 23 5 33 16
6 31 2 57 -15 36 -25 52 -18 43 17 -6 21 18 25 59 10 81 -29 99 -19 52 30 -21
22 -24 31 -15 47 8 15 7 23 -4 32 -22 18 -19 23 25 44 22 10 37 22 35 27 -3 4
-19 1 -35 -8 -39 -19 -125 -23 -175 -8 -22 6 -42 11 -45 11 -3 0 -14 5 -25 12
-17 9 -18 14 -7 31 18 31 16 32 -33 25 -37 -5 -45 -3 -45 10 0 21 51 46 105
52 35 3 45 1 45 -11 0 -16 42 -31 59 -21 6 4 21 0 35 -9 29 -19 42 -6 25 26
-12 24 -7 22 43 -14 25 -19 28 -19 52 -3 15 9 27 22 28 29 7 63 19 87 44 87
28 0 32 16 7 24 -27 8 -101 17 -173 20 -67 3 -180 33 -180 48 0 11 21 10 40
-1 28 -19 31 2 4 30 -33 35 -34 34 40 8 69 -24 86 -20 86 19 0 16 7 35 15 42
8 7 15 9 15 5 0 -4 7 -2 15 5 8 6 13 17 12 23 -1 6 4 12 11 13 25 3 27 5 14
12 -7 5 -36 8 -65 7 -45 -2 -60 3 -107 33 -48 32 -61 36 -115 34 -106 -3 -265
68 -265 119 0 20 91 3 170 -30 92 -40 101 -40 90 -1 -10 37 -2 43 33 25 40
-21 87 -23 87 -5 0 6 -19 31 -41 55 -36 39 -39 45 -23 51 11 3 30 10 43 15 41
17 5 37 -75 44 -38 3 -100 14 -136 24 -37 11 -68 18 -70 16 -8 -7 -133 62
-136 75 -4 23 116 20 152 -4 40 -26 62 -17 58 22 -3 45 31 61 79 37 98 -51
135 -33 58 28 -27 21 -46 43 -43 48 3 6 11 3 18 -6 14 -20 51 -16 51 5 0 8 11
17 24 20 31 7 36 23 15 44 -16 17 -52 17 -179 0 -26 -3 -35 -1 -26 4 9 7 11
19 6 40 -7 33 -6 34 69 47 65 10 55 28 -37 65 -31 12 -76 36 -98 52 -23 16
-62 38 -87 49 -42 18 -71 43 -72 62 0 16 28 5 84 -33 32 -22 67 -40 78 -40 24
0 33 25 20 56 -10 21 -9 24 7 24 10 0 24 7 31 15 7 8 8 15 3 15 -5 0 -15 12
-22 26 -10 22 -9 26 3 21 9 -4 18 -2 21 3 3 5 12 7 20 3 8 -3 15 0 15 5 0 6
-17 14 -37 17 -67 11 -78 19 -78 56 0 29 -5 37 -35 51 -27 14 -30 18 -15 19
11 1 24 1 29 0 4 -1 17 1 27 4 17 6 18 8 3 30 -9 13 -14 39 -13 57 2 18 -1 39
-5 47 -6 10 -3 12 13 7 11 -3 30 -8 40 -11 11 -3 22 -2 25 3 3 5 -24 17 -60
27 -49 13 -82 16 -134 11 -39 -4 -70 -4 -70 -1 0 12 22 49 42 69 34 36 39 53
22 70 -8 9 -21 16 -28 16 -13 0 -71 -61 -79 -84 -2 -6 -7 -8 -11 -5 -4 4 2 22
13 40 28 45 28 73 1 64 -26 -8 -25 -3 5 61 32 69 23 99 -24 75 -16 -9 -18 -4
-16 72 2 84 -14 139 -38 134 -26 -5 -35 -41 -30 -124 4 -72 3 -83 -12 -83 -20
0 -12 -35 16 -66 22 -23 23 -37 8 -65 -10 -19 -12 -19 -35 -4 -23 15 -27 15
-50 0 -31 -20 -30 -29 7 -66 30 -29 30 -31 13 -50 -16 -18 -16 -20 1 -39 18
-19 17 -20 -3 -20 -11 0 -22 -5 -24 -11 -2 -6 -24 -13 -49 -14 -48 -3 -72 10
-102 56 -21 32 -10 44 48 53 22 3 41 5 43 6 1 0 2 11 2 24 0 33 -30 67 -70 80
-28 9 -41 23 -71 82 -26 51 -34 76 -27 88 15 26 31 19 83 -35 49 -50 82 -71
98 -62 7 4 -9 42 -22 53 -4 3 -18 27 -31 53 -14 26 -34 57 -44 69 -18 19 -18
22 -3 33 21 15 12 25 -23 25 -29 0 -66 34 -72 65 -2 15 2 20 20 19 29 -2 28 7
-3 36 -32 30 -32 50 0 50 l25 0 -31 60 c-17 33 -28 68 -25 78 9 27 6 37 -10
34 -20 -4 -18 24 11 107 32 96 23 120 -31 84 l-26 -17 26 52 c30 60 31 62 11
62 -8 0 -15 -6 -15 -12 0 -10 -3 -9 -9 1 -5 7 -6 25 -2 40 8 29 -1 91 -11 76
-3 -6 -9 -42 -12 -80 -6 -78 -13 -115 -21 -123 -3 -3 -15 0 -28 6 -47 24 -81
32 -165 37 -138 9 -172 23 -172 70 0 8 20 34 44 59 43 43 50 55 47 84 -2 18
-29 15 -40 -5 -14 -26 -23 -10 -11 21 14 37 3 53 -20 29 -15 -17 -47 -93 -41
-101 1 -1 -5 -10 -14 -19 -29 -29 -39 0 -39 114 -1 90 2 113 18 136 l19 28
-28 -5 c-26 -5 -27 -4 -21 32 12 69 14 136 4 162 -15 39 -20 62 -20 98 0 33
-16 45 -20 15 -1 -10 -3 -74 -3 -143 l0 -125 -30 -1 c-16 -1 -33 -2 -37 -3 -4
0 6 -23 22 -50 28 -45 36 -72 31 -108 -1 -9 -12 -7 -36 7 -43 24 -55 25 -55 5
0 -16 28 -65 42 -76 21 -14 58 -75 58 -94 0 -35 -19 -46 -46 -28 -23 15 -24
14 -30 -16 -6 -27 -10 -31 -40 -31 -27 0 -34 -4 -34 -19 0 -30 -20 -31 -130
-6 -83 19 -119 21 -153 8 -69 -28 -57 -56 37 -82 37 -10 69 -21 72 -23 2 -3
-3 -24 -11 -48 -18 -50 -9 -68 25 -50 29 16 70 22 145 24 54 1 60 -1 63 -20 3
-24 -27 -40 -93 -48 -22 -3 -41 -5 -42 -6 -13 -1 2 -41 22 -60 14 -13 25 -27
25 -31 0 -4 -19 -21 -42 -38 -37 -27 -49 -31 -106 -30 -101 2 -120 -36 -39
-77 16 -9 31 -13 34 -10 3 3 14 1 25 -5 13 -7 16 -14 10 -22 -5 -7 -13 -22
-16 -34 -9 -30 12 -30 48 -2 23 18 27 19 32 5 4 -11 -6 -28 -30 -51 -36 -34
-43 -62 -29 -118 5 -17 6 -17 23 -2 23 21 52 13 65 -17 15 -35 42 -33 83 6 20
20 40 36 45 36 9 0 2 -77 -9 -105 -3 -7 -16 -17 -28 -23 -20 -9 -33 -5 -82 25
-75 45 -102 55 -120 45 -10 -6 -28 5 -60 34 -75 71 -186 115 -276 109 -69 -5
-96 -17 -144 -63 -75 -73 -114 -96 -114 -69 0 17 -49 20 -74 4 -36 -23 -54
-26 -66 -12 -10 12 -7 17 14 24 14 6 36 26 48 45 28 43 41 49 73 34 22 -10 30
-8 56 11 35 26 52 30 134 36 174 13 208 21 268 61 47 31 38 49 -23 46 -34 -2
-41 1 -53 25 -31 61 -30 69 13 109 61 57 51 104 -21 104 -31 0 -39 4 -44 23
-21 77 -29 95 -55 110 -16 10 -30 17 -33 17 -3 0 -21 -16 -39 -35 -35 -37
-106 -59 -143 -44 -32 12 -83 10 -92 -3 -4 -7 -9 -21 -10 -31 -4 -25 -24 -42
-50 -44 -27 -2 -27 0 -9 36 20 37 78 87 132 114 42 20 47 20 87 6 57 -21 67
-16 67 37 0 70 22 85 120 82 44 -1 82 1 85 4 28 28 -10 138 -50 144 -10 2 -42
-10 -70 -25 l-51 -28 -42 24 c-35 21 -40 28 -32 43 13 24 4 47 -22 53 -16 5
-19 11 -13 29 17 57 17 73 -5 93 -21 19 -23 19 -52 2 -70 -40 -80 -4 -12 45
67 48 86 91 62 143 -15 34 -43 32 -58 -5 -9 -22 -19 -30 -37 -30 -24 0 -27 -4
-37 -52 -4 -16 -11 -28 -17 -28 -7 0 -8 7 -4 18 4 9 8 33 9 52 1 20 11 50 21
67 15 26 16 34 6 47 -7 8 -16 15 -19 14 -28 -3 -40 4 -35 21 2 10 -3 26 -12
35 -16 16 -16 19 7 54 38 57 17 82 -38 46 -38 -26 -40 -10 -4 45 35 56 33 71
-8 66 -22 -3 -34 4 -65 41 -21 27 -34 51 -30 57 8 13 10 22 17 73 3 26 0 34
-20 43 -33 14 -59 14 -71 -1z m-412 -1042 c13 -9 35 -16 50 -16 30 0 148 -37
167 -52 10 -9 9 -15 -3 -34 -19 -30 -19 -31 10 -58 20 -19 22 -26 12 -39 -26
-35 -97 -23 -97 16 0 33 -81 55 -117 32 -25 -17 -25 -17 -19 12 15 68 15 73
-5 83 -26 14 -52 -1 -84 -48 -24 -35 -25 -35 -26 -12 -2 73 -14 100 -52 113
-6 2 -3 14 7 29 l17 26 59 -18 c32 -10 69 -25 81 -34z m2099 -202 c0 -8 -16
-20 -36 -29 l-35 -15 30 -44 c25 -35 28 -45 16 -50 -8 -3 -21 -3 -27 -1 -7 2
-26 7 -41 9 -51 9 -95 27 -101 41 -3 9 7 23 25 36 27 19 29 23 15 38 -14 16
-13 19 17 36 52 31 99 36 120 12 9 -10 17 -25 17 -33z m24 -206 c-3 -5 -15 -8
-28 -8 -12 0 -40 -15 -62 -34 l-39 -33 -2 33 c-1 30 1 34 25 35 27 0 27 0 5
11 -40 19 -27 37 30 40 43 2 54 0 64 -17 6 -11 9 -23 7 -27z m-253 -18 c57
-53 132 -89 144 -70 4 6 15 10 27 10 16 0 19 -5 14 -22 -3 -13 -6 -28 -6 -35
0 -6 -9 -15 -20 -18 -11 -4 -41 -22 -66 -41 -26 -20 -52 -33 -61 -30 -20 8 -7
26 33 42 19 8 34 21 34 29 0 17 -35 42 -70 48 -69 13 -116 58 -102 97 12 34
29 32 73 -10z m-1911 -9 c0 -4 16 -25 35 -45 28 -30 38 -35 53 -27 10 5 37 10
60 9 42 0 42 -1 39 -35 -3 -26 -12 -40 -40 -59 -21 -14 -37 -22 -37 -18 0 3
-6 1 -14 -5 -32 -26 -96 3 -67 32 30 30 -5 59 -56 45 -21 -5 -38 -19 -48 -38
-12 -23 -22 -30 -45 -30 -16 0 -36 7 -44 16 -14 14 -13 18 10 41 18 18 22 29
15 36 -28 28 -3 54 79 81 25 8 60 7 60 -3z m-825 -21 c3 -5 -1 -10 -10 -10 -9
0 -13 5 -10 10 3 6 8 10 10 10 2 0 7 -4 10 -10z m238 -139 c21 -13 49 -39 62
-59 23 -34 24 -37 8 -43 -24 -8 -53 11 -53 34 0 28 -26 48 -54 43 -20 -4 -26
1 -35 26 -16 45 -14 52 12 36 12 -8 39 -25 60 -37z m-117 -23 c4 4 4 2 1 -5
-4 -6 -15 -10 -25 -8 -9 2 -20 4 -24 4 -5 1 -8 5 -8 11 0 6 9 6 24 0 13 -5 27
-6 32 -2z m2584 -6 c0 -5 11 -15 25 -22 14 -7 25 -18 25 -24 0 -14 39 -40 60
-41 8 0 16 9 18 19 6 31 66 77 90 69 22 -8 13 -20 -38 -53 -27 -17 -63 -46
-80 -63 l-30 -31 -36 39 c-52 59 -67 83 -60 100 6 16 26 21 26 7z m-1558 -53
c20 -11 20 -11 -3 -27 -12 -8 -45 -21 -73 -27 -55 -13 -73 -42 -24 -38 25 2
26 0 15 -18 -18 -29 -54 -35 -78 -13 -19 17 -49 75 -49 94 0 15 29 19 42 7 32
-32 83 -24 117 17 16 19 25 20 53 5z m1812 -16 c-9 -32 -39 -62 -69 -68 l-30
-7 33 29 c17 16 32 36 32 46 0 10 8 17 19 17 13 0 18 -5 15 -17z m-3294 -72
c0 -12 -20 -25 -27 -18 -7 7 6 27 18 27 5 0 9 -4 9 -9z m2066 -190 c46 -63 66
-69 112 -38 21 15 43 27 49 27 6 0 21 -15 32 -34 27 -44 58 -52 84 -23 14 17
30 22 68 23 53 0 73 -10 39 -21 -11 -3 -20 -10 -20 -15 0 -11 30 -21 41 -15
20 13 111 16 125 4 19 -15 19 -88 0 -95 -8 -3 -47 10 -88 29 -94 46 -169 55
-220 28 -30 -15 -38 -16 -39 -5 -1 8 -2 22 -3 32 -3 37 -14 41 -66 21 -28 -10
-62 -19 -77 -19 -36 0 -90 38 -99 70 -11 38 -11 44 -1 58 16 21 32 14 63 -27z
m1135 -23 c34 -38 22 -64 -19 -42 -15 8 -33 14 -39 14 -16 0 -17 22 -1 38 18
18 38 15 59 -10z m-3208 -2 c6 -15 -18 -52 -64 -97 -23 -23 -35 -26 -88 -26
-34 0 -61 3 -61 6 1 14 56 45 76 43 14 -1 40 15 71 43 53 49 58 52 66 31z
m1957 -65 c11 -13 117 -90 145 -105 39 -20 75 -20 89 0 11 15 16 14 52 -3 28
-14 38 -24 36 -38 -6 -31 -34 -44 -93 -43 -30 0 -72 -5 -92 -13 -36 -13 -38
-12 -68 19 -17 18 -38 33 -45 33 -8 1 -17 2 -21 3 -5 1 -28 5 -53 9 -37 6 -49
14 -68 43 -46 70 -36 124 23 136 18 4 82 -24 95 -41z m-1403 -2 c35 10 48 3
80 -45 8 -13 23 -24 32 -24 27 0 33 -12 14 -26 -14 -10 -23 -9 -46 3 -45 23
-69 24 -83 5 -12 -16 -14 -16 -41 4 -16 12 -28 31 -29 45 -1 13 -4 35 -9 48
l-7 23 28 -21 c24 -17 35 -19 61 -12z m418 -7 c-3 -3 -11 0 -18 7 -9 10 -8 11
6 5 10 -3 15 -9 12 -12z m128 -19 c15 -8 32 -11 37 -8 15 9 12 -8 -5 -32 -17
-24 -77 -26 -98 -4 -10 11 -8 13 9 9 12 -3 28 -2 35 3 19 12 -1 25 -55 34 -34
6 -37 8 -21 15 23 9 58 3 98 -17z m-1387 -128 c-14 -20 -31 -23 -31 -5 0 5 7
18 15 29 19 27 35 4 16 -24z m2697 -93 c-3 -22 -2 -22 19 -8 51 36 96 6 52
-35 -13 -12 -23 -29 -22 -38 2 -9 -7 -17 -22 -21 -14 -3 -34 -10 -44 -16 -18
-11 -18 -13 -4 -28 9 -9 23 -16 30 -16 8 0 19 -5 26 -12 8 -8 2 -18 -26 -39
-20 -16 -39 -29 -42 -29 -3 0 -7 24 -8 53 -1 28 -4 63 -5 76 -1 17 5 29 19 36
22 11 21 33 -3 52 -20 15 -7 55 15 51 11 -3 16 -12 15 -26z m-1773 -44 c26
-28 22 -51 -10 -54 -48 -3 -81 -13 -136 -39 -70 -33 -94 -38 -94 -20 0 22 91
80 128 81 35 1 55 14 35 21 -23 8 -14 21 12 18 14 -1 25 2 25 6 0 16 19 9 40
-13z m2918 -5 c6 -9 12 -21 12 -25 0 -8 -55 -2 -71 7 -6 4 -6 27 0 42 3 8 49
-10 59 -24z m-338 -17 c0 -13 -48 -63 -52 -55 -28 45 -28 47 0 68 27 20 52 14
52 -13z m-1642 -11 c19 -5 21 -8 11 -26 l-11 -21 -23 22 c-28 26 -50 21 -67
-15 -14 -30 -42 -39 -83 -26 -16 5 -24 10 -16 10 7 1 27 13 45 29 32 27 93 39
144 27z m-294 -71 c3 -9 6 -19 6 -24 0 -8 -5 -8 -65 5 l-30 7 25 13 c33 19 57
18 64 -1z m356 -19 c0 -8 -4 -15 -10 -15 -5 0 -10 7 -10 15 0 8 5 15 10 15 6
0 10 -7 10 -15z m432 -9 c8 -7 35 -23 62 -35 26 -11 64 -34 82 -51 19 -16 40
-30 46 -30 9 0 9 -3 0 -12 -9 -9 -18 -7 -40 9 -29 21 -102 61 -114 61 -4 1
-21 -3 -38 -8 -19 -5 -32 -5 -36 2 -11 18 -92 2 -132 -26 -21 -14 -46 -26 -57
-26 -17 0 129 109 165 123 26 10 48 7 62 -7z m-461 -89 c-14 -5 -51 -10 -81
-13 -51 -4 -54 -4 -36 11 11 8 29 15 41 15 12 0 25 3 29 7 3 4 17 8 29 10 12
2 24 9 26 16 3 7 8 1 11 -13 5 -21 2 -26 -19 -33z m2053 4 c-2 -2 -11 -1 -20
3 -14 5 -14 9 -3 22 12 14 14 14 20 -3 3 -10 5 -20 3 -22z m-3720 -10 c3 -5
-1 -15 -10 -22 -8 -7 -22 -25 -30 -41 -17 -33 -89 -88 -114 -88 -21 0 -31 20
-23 49 4 15 11 20 23 16 11 -4 28 7 49 32 45 53 91 77 105 54z m2378 -81 c25
0 12 -25 -20 -39 -14 -7 -42 -31 -61 -53 -37 -43 -30 -42 -143 -22 -21 3 -53
1 -75 -7 -21 -7 -45 -14 -53 -15 -16 -3 -120 53 -120 65 0 17 50 52 82 57 30
5 41 1 82 -35 54 -46 100 -55 111 -21 4 14 18 22 44 26 40 6 96 48 86 64 -3 5
7 3 22 -5 15 -8 36 -15 45 -15z m-1306 -29 c8 -11 21 -21 29 -21 7 0 27 -13
43 -30 17 -16 35 -30 41 -30 6 0 17 14 26 30 19 36 39 41 25 6 -5 -13 -6 -26
-3 -29 2 -3 -6 -12 -19 -20 -30 -19 -90 -20 -156 -2 -30 7 -82 12 -116 11 -55
-3 -62 -1 -63 15 -1 11 9 27 23 36 16 10 23 22 19 31 -9 24 15 33 78 29 45 -3
61 -9 73 -26z m3119 -219 c-7 -7 -85 -3 -97 4 -5 4 2 14 18 24 26 18 28 18 55
-3 16 -11 27 -23 24 -25z m-2605 -81 c0 -10 -18 -24 -35 -27 -5 -1 -26 -5 -45
-9 -19 -3 -60 -8 -90 -10 -50 -4 -51 -3 -15 4 22 5 63 18 90 29 54 23 95 28
95 13z m107 -68 c-6 -46 -15 -84 -21 -91 -3 -2 3 -21 14 -42 16 -32 17 -40 5
-63 -7 -14 -11 -28 -9 -30 3 -2 7 -26 11 -52 7 -58 -7 -71 -51 -48 -17 9 -43
16 -58 15 -15 0 -30 4 -33 9 -4 5 -21 9 -38 9 -34 1 -67 20 -67 38 0 6 18 22
40 34 21 13 41 32 44 44 3 12 25 29 55 43 54 24 60 36 64 126 2 40 25 71 41
55 4 -4 6 -26 3 -47z m713 -32 c0 -14 -91 -71 -102 -65 -9 6 -3 15 41 66 19
22 27 25 42 17 11 -5 19 -14 19 -18z m-396 -101 c37 -39 49 -44 113 -40 36 2
73 -28 73 -60 0 -23 -4 -24 -31 -10 -13 7 -19 7 -19 1 0 -7 -9 -7 -22 -3 -13
5 -30 8 -38 7 -8 0 -29 11 -46 26 -27 22 -39 25 -75 21 -82 -8 -84 -8 -87 15
-4 25 51 83 77 83 9 0 34 -18 55 -40z m-832 -63 c22 -3 59 -22 91 -46 30 -23
59 -41 66 -41 6 0 28 -7 49 -16 l37 -16 -54 -24 c-48 -21 -56 -23 -63 -9 -13
23 -34 18 -61 -15 -14 -16 -32 -30 -41 -30 -12 0 -27 25 -31 50 -3 22 -46 72
-91 104 -30 22 -54 42 -54 45 0 18 47 27 80 15 19 -7 52 -15 72 -17z m-196
-33 c19 -19 34 -41 34 -47 0 -7 22 -28 48 -47 79 -59 81 -62 31 -56 -45 6 -81
-5 -60 -18 6 -4 11 -17 11 -30 0 -12 5 -27 12 -34 9 -9 9 -12 -2 -13 -8 0 -22
-2 -30 -3 -8 -2 -45 -6 -82 -10 l-66 -6 4 39 c2 21 -1 52 -5 69 -7 23 -6 34 6
43 10 9 13 24 10 48 -3 26 1 45 17 68 11 18 25 33 30 33 5 0 24 -16 42 -36z
m1114 -80 c12 -12 12 -16 -1 -30 -41 -40 -143 -35 -137 8 6 41 101 56 138 22z
m-135 -484 c10 -11 15 -20 11 -20 -4 0 -2 -9 4 -20 8 -15 8 -20 -2 -21 -12 0
-23 -3 -53 -9 -22 -5 -35 1 -45 20 -9 17 -6 25 14 45 30 30 47 31 71 5z m118
-34 c7 -19 -1 -26 -30 -26 -26 0 -28 5 -10 25 16 18 33 19 40 1z m121 -26
c-16 -15 -69 -16 -60 -2 3 5 20 9 37 10 18 0 28 -3 23 -8z m-100 -85 c23 -4
57 -14 76 -22 47 -19 23 -33 -38 -21 -74 14 -112 17 -117 8 -3 -5 4 -24 15
-42 23 -38 26 -68 6 -68 -7 0 -31 -16 -52 -35 -21 -19 -45 -36 -53 -36 -9 -1
-27 -2 -41 -3 l-25 -1 2 93 c1 64 6 100 17 116 14 22 20 24 92 21 42 -2 95 -7
118 -10z m-418 -138 c11 -30 10 -87 -2 -87 -24 0 -27 -23 -6 -40 16 -13 20
-25 16 -51 -8 -55 -12 -63 -28 -50 -7 6 -20 9 -28 6 -17 -7 -43 19 -33 35 3 5
12 10 20 10 24 0 26 18 4 39 -19 17 -20 23 -8 37 7 9 23 20 36 25 31 12 29 37
-3 50 -26 9 -26 10 -8 24 24 18 33 18 40 2z m-340 -19 c17 -17 29 -68 16 -68
-5 0 -12 -9 -15 -19 -6 -23 18 -61 38 -61 24 0 24 -16 0 -44 -24 -28 -92 -54
-132 -50 -50 4 -58 6 -45 11 18 7 15 34 -9 59 l-21 23 47 50 47 50 -21 27
c-12 15 -21 30 -21 34 0 12 102 2 116 -12z m619 -290 c15 -18 36 -38 46 -43
18 -10 18 -12 -9 -32 -28 -21 -52 -26 -102 -24 -24 1 -26 4 -25 46 1 45 25 85
51 85 7 0 24 -15 39 -32z m95 -48 c-8 -5 -17 -7 -19 -4 -3 3 1 9 9 14 8 5 17
7 19 4 3 -3 -1 -9 -9 -14z m134 -138 c12 -19 -28 -58 -99 -96 -97 -51 -106
-63 -75 -104 31 -42 16 -63 -43 -57 -56 5 -75 10 -84 18 -14 14 -12 101 3 129
l15 29 29 -21 29 -21 40 36 c29 27 45 34 63 30 17 -4 32 3 58 29 35 34 54 43
64 28z m-494 -212 c0 -20 -5 -30 -15 -30 -17 0 -18 4 -9 38 9 32 24 27 24 -8z
m-3 -86 c17 -24 17 -43 -2 -50 -18 -7 -20 -31 -2 -37 9 -3 9 -9 1 -23 -6 -11
-15 -19 -20 -19 -85 -5 -172 -32 -179 -56 -12 -36 11 -43 76 -24 25 8 48 -18
53 -59 6 -51 37 -92 66 -89 l21 3 -5 -278 c-5 -243 -14 -363 -28 -377 -2 -2
-42 -7 -89 -9 -46 -3 -94 -7 -105 -10 -65 -14 -199 -29 -249 -29 -49 0 -158
11 -205 22 -19 4 -54 7 -77 7 -45 -1 -42 -5 -59 74 -10 50 -15 107 -18 208 -2
93 -1 104 16 113 16 8 24 5 44 -16 31 -33 55 -29 74 13 l16 32 34 -35 34 -36
17 23 c19 24 17 49 -6 84 -23 36 -19 54 15 61 17 3 30 9 30 13 0 14 -36 46
-80 69 -67 36 -79 46 -72 57 13 19 57 13 99 -14 24 -15 43 -30 43 -34 0 -11
52 -10 70 2 16 10 50 -14 50 -35 0 -14 38 -65 49 -65 4 0 13 15 19 34 16 44
32 49 75 26 l36 -19 20 25 c11 14 23 42 27 63 10 55 21 63 75 56 49 -7 64 1
53 29 -8 21 -80 43 -151 45 -12 1 -29 9 -38 18 -16 16 -16 17 0 29 16 12 15
14 -4 26 -33 20 -25 43 24 69 32 17 45 31 46 46 1 13 3 28 4 33 1 6 3 17 4 25
1 9 12 15 29 16 15 0 35 4 45 7 34 14 110 5 124 -14z m-517 -49 c4 3 22 0 40
-7 42 -14 23 -26 -57 -34 -48 -5 -61 -3 -73 11 -12 14 -10 20 16 44 l29 28 18
-24 c10 -13 22 -21 27 -18z m229 -1 c22 -11 29 -20 23 -26 -12 -12 -69 10 -77
29 -6 18 15 16 54 -3z m721 -214 c0 -5 -34 -28 -75 -51 -41 -23 -77 -49 -80
-57 -7 -19 2 -32 23 -32 39 -1 43 -14 16 -66 -21 -41 -23 -54 -15 -77 14 -35
29 -34 65 4 28 29 31 30 43 13 7 -10 13 -23 13 -30 0 -7 10 -16 21 -19 16 -5
28 0 46 19 31 34 42 33 97 -9 25 -19 47 -30 47 -25 1 6 3 15 4 20 1 6 3 15 4
21 1 13 60 -32 59 -46 -3 -57 14 -58 81 -5 28 22 55 40 62 40 6 0 24 -9 40
-21 30 -21 49 -19 49 7 0 8 7 15 15 15 8 1 21 2 28 3 6 1 20 -2 30 -6 12 -6
17 -5 17 4 0 7 10 19 22 27 19 12 23 11 35 -5 17 -24 17 -27 -9 -43 -33 -20
-156 -70 -161 -65 -2 3 -10 -2 -17 -11 -7 -8 -18 -15 -26 -15 -20 0 -31 -29
-29 -75 1 -22 -2 -55 -6 -72 -11 -50 16 -43 90 25 57 51 150 102 188 102 7 0
12 -10 12 -22 0 -13 0 -101 1 -197 1 -95 -1 -175 -4 -178 -13 -13 -464 4 -586
22 -14 2 -48 7 -76 10 -28 3 -61 8 -74 10 -14 3 -54 7 -90 11 -36 3 -66 7 -67
8 -4 3 -23 443 -27 619 -1 59 2 107 6 107 5 0 17 -4 27 -9 14 -8 30 -2 70 25
28 19 61 39 74 43 23 9 57 -2 57 -19z m-3020 -200 c0 -5 -10 -15 -22 -21 l-23
-12 20 21 c23 24 25 25 25 12z m3333 -16 c27 -25 28 -27 11 -45 -9 -11 -18
-18 -19 -17 -2 2 -12 22 -24 46 -25 49 -11 56 32 16z m947 -28 c0 -2 -7 -6
-15 -10 -8 -3 -15 -1 -15 4 0 6 7 10 15 10 8 0 15 -2 15 -4z m-357 -77 c20
-25 58 -48 73 -42 8 3 14 15 14 28 0 22 17 35 44 35 6 0 17 -14 23 -31 l12
-31 33 23 c18 13 42 31 52 41 23 21 44 24 27 5 -8 -10 -7 -19 3 -32 12 -16 12
-23 -1 -42 -14 -21 -14 -25 2 -43 13 -14 26 -18 49 -14 29 4 33 2 46 -33 10
-27 13 -73 11 -158 -4 -170 -6 -193 -13 -200 -3 -4 -101 -8 -217 -10 l-211 -4
-1 157 c-2 322 -2 350 5 378 7 28 8 28 23 9 8 -11 20 -27 26 -36z m-2350 -91
c-2 -51 -5 -129 -7 -173 -2 -44 -4 -110 -5 -146 -1 -55 -4 -66 -18 -67 -66 -4
-340 1 -363 7 -13 3 5 220 25 309 3 12 7 31 10 43 2 11 13 35 23 52 14 24 25
32 48 32 16 0 38 5 50 12 27 16 40 6 53 -44 7 -24 14 -43 18 -43 12 0 83 44
83 52 0 4 4 8 9 8 6 0 22 11 37 25 15 14 30 25 34 25 4 0 6 -42 3 -92z m-896
74 c10 -6 10 -17 3 -42 -16 -55 -13 -57 33 -13 46 45 83 67 96 59 5 -3 7 -24
5 -46 -4 -38 7 -53 21 -30 10 16 83 60 99 60 8 0 20 -16 26 -35 16 -49 25 -50
50 -9 35 56 45 32 41 -104 -1 -64 -4 -133 -6 -152 -2 -19 -4 -57 -4 -83 l-1
-48 -72 5 c-63 5 -228 16 -293 20 -19 1 -20 8 -20 214 0 116 2 212 5 212 3 0
11 -4 17 -8z m3858 -150 c16 -8 25 -6 44 9 31 25 50 24 60 -3 6 -19 8 -183 2
-310 l-1 -28 -100 0 -100 0 -1 38 c-1 20 -3 46 -4 57 -9 72 -14 252 -8 261 13
20 47 21 68 4 11 -10 29 -22 40 -28z"/>
</g>
</svg>
