<svg xmlns="http://www.w3.org/2000/svg" viewBox="0 0 116.62 127.31" fill="#7ad9a7">
    <path class="cls-1" stroke="#000"
          d="M149.1,113.51c2.85-.78-.4-8.06-1.94-10.57-3.06-5-6.12-14.37-2.64-30.43,5.86-27,21.28-12.17,20-6.32s-.92,29,8.64,30.53,33.6,9.55,36.38,19.88l-.31,52.11s-13.26,14.18-33,14.18-28.21.26-28.21.26"
          transform="translate(-113.19 -56.35)"/>
    <rect class="cls-1" x="95.46" y="55.79" width="20.66" height="66.9" rx="8.8" stroke="#000"/>
    <rect class="cls-1" x="0.5" y="51.93" width="44.09" height="19.42" rx="9.71" stroke="#000"/>
    <rect class="cls-1" x="4.88" y="71.05" width="39.71" height="19.42" rx="9.71" stroke="#000"/>
    <rect class="cls-1" x="7.97" y="89.55" width="36.62" height="19.42" rx="9.71" stroke="#000"/>
    <rect class="cls-1" x="12.72" y="109.06" width="31.87" height="17.74" rx="8.87" stroke="#000"/>
</svg>
